<?xml version="1.0" encoding="utf-8"?>
<!-- Generator: Adobe Illustrator 21.1.0, SVG Export Plug-In . SVG Version: 6.00 Build 0)  -->
<svg version="1.1" id="Layer_1" xmlns="http://www.w3.org/2000/svg" xmlns:xlink="http://www.w3.org/1999/xlink" x="0px" y="0px"
	 viewBox="0 0 100 100" style="enable-background:new 0 0 100 100;" xml:space="preserve">
<path d="M50,60.8c5.5,0,10-4.5,10-10V32.2c0-5.5-4.5-10-10-10s-10,4.5-10,10v18.6C40,56.3,44.5,60.8,50,60.8z M68.2,4.8
	C62.6,2.5,56.5,1.3,50,1.3C25.2,1.3,4.7,19.9,1.7,43.9c-0.2,2-0.4,4-0.4,6.1c0,26.9,21.8,48.7,48.7,48.7S98.7,76.9,98.7,50
	C98.7,29.5,86.1,12,68.2,4.8z M36.2,32.2c0-7.6,6.2-13.8,13.8-13.8s13.8,6.2,13.8,13.8v18.6c0,7.6-6.2,13.8-13.8,13.8
	s-13.8-6.2-13.8-13.8V32.2z M69.3,51.5c0,10-7.6,18.2-17.4,19.2v7.1H59c1,0,1.9,0.8,1.9,1.9c0,1-0.8,1.9-1.9,1.9H41
	c-1,0-1.9-0.8-1.9-1.9c0-1,0.8-1.9,1.9-1.9h7.1v-7.1c-9.7-1-17.4-9.2-17.4-19.2V42c0-1,0.8-1.9,1.9-1.9s1.9,0.8,1.9,1.9v9.5
	C34.5,60,41.5,67,50,67s15.5-7,15.5-15.5V42c0-1,0.8-1.9,1.9-1.9c1,0,1.9,0.8,1.9,1.9V51.5z"/>
</svg>
