<?xml version="1.0" encoding="utf-8"?>
<!-- Generator: Adobe Illustrator 21.1.0, SVG Export Plug-In . SVG Version: 6.00 Build 0)  -->
<svg version="1.1" id="Layer_1" xmlns="http://www.w3.org/2000/svg" xmlns:xlink="http://www.w3.org/1999/xlink" x="0px" y="0px"
	 viewBox="0 0 160 90" style="enable-background:new 0 0 160 90;" xml:space="preserve">
<style type="text/css">
	.st0{fill:#1FB6FF;}
</style>
<g>
	<path class="st0" d="M33,29h2.2c0.7,0,1.6,0.1,2.3,0.1s1.4,0.1,2.1,0.3c0.6,0.1,1.2,0.4,1.7,0.7c1,0.7,1.9,1.5,2.6,2.5
		c0.7,1.2,1.1,2.6,1,4c0.1,1.5-0.4,3.1-1.2,4.3s-2,2.2-3.4,2.7v0.1c1.7,0.3,3.4,1.3,4.4,2.6c1,1.4,1.6,3.1,1.6,4.9
		c0,1.1-0.2,2.2-0.6,3.4c-0.4,1-1,2.1-1.8,2.9c-0.8,0.9-1.9,1.6-3,2c-1.3,0.5-2.7,0.8-4.1,0.7H21.6V29H33z M34.1,42.6
		c2.4,0,4.1-0.4,5.2-1.3c1-1,1.6-2.3,1.6-3.7c0.1-0.9-0.1-1.8-0.5-2.6c-0.3-0.6-0.8-1.1-1.4-1.5c-0.7-0.4-1.3-0.6-2.1-0.7
		c-0.8-0.1-1.7-0.1-2.5-0.1h-8.5v10L34.1,42.6z M36.3,56.9c1.6,0.1,3.1-0.4,4.3-1.5c1-1.1,1.6-2.6,1.6-4.1c0-0.9-0.1-1.8-0.6-2.5
		c-0.4-0.7-0.9-1.2-1.5-1.6c-0.7-0.4-1.4-0.7-2.2-0.8c-0.8-0.1-1.7-0.2-2.5-0.2h-9.7V57L36.3,56.9L36.3,56.9z"/>
	<path class="st0" d="M70.9,60.4c-0.8,0.4-1.7,0.6-2.7,0.6c-0.8,0.1-1.6-0.2-2.3-0.8c-0.7-0.7-1-1.7-0.8-2.7c-1,1.2-2.2,2.1-3.6,2.7
		c-2.3,0.9-4.9,1-7.3,0.4c-0.9-0.2-1.6-0.6-2.4-1.1c-0.7-0.5-1.3-1.2-1.6-1.9c-0.4-0.9-0.6-1.9-0.6-2.9c0-1.1,0.2-2.2,0.7-3.1
		c0.4-0.8,1-1.5,1.7-2c0.7-0.5,1.6-0.9,2.5-1.2c0.9-0.3,1.9-0.5,2.8-0.7c1-0.2,1.9-0.4,2.9-0.4c0.8-0.1,1.6-0.2,2.5-0.4
		c0.6-0.1,1.2-0.4,1.6-0.8c0.4-0.4,0.7-1,0.6-1.6c0-0.7-0.1-1.3-0.4-1.9c-0.3-0.4-0.7-0.9-1.2-1.1c-0.5-0.3-1-0.4-1.6-0.5
		c-0.6-0.1-1.2-0.1-1.8-0.1c-1.3-0.1-2.8,0.3-4,0.9c-1,0.6-1.6,1.7-1.7,3.4h-3.7c0-1.3,0.3-2.5,0.9-3.6c0.5-0.9,1.3-1.7,2.2-2.3
		s1.9-1,3-1.3c1.2-0.3,2.4-0.4,3.7-0.4c1,0,2,0.1,3.1,0.2c1,0.1,1.9,0.4,2.8,0.9c0.8,0.4,1.5,1.1,1.9,1.9c0.5,1,0.8,2.1,0.7,3.2
		v11.7c0,0.7,0,1.3,0.1,1.9c0.1,0.4,0.4,0.6,1,0.6c0.4,0,0.7-0.1,1.1-0.1L70.9,60.4z M64.8,48.7c-0.5,0.4-1.2,0.7-1.9,0.7
		c-0.7,0.1-1.6,0.3-2.4,0.4s-1.6,0.2-2.5,0.4c-0.8,0.1-1.6,0.3-2.3,0.6c-0.7,0.3-1.2,0.7-1.6,1.3c-0.4,0.7-0.7,1.4-0.6,2.2
		c0,0.5,0.1,1,0.4,1.6c0.2,0.4,0.5,0.7,1,1c0.4,0.3,0.9,0.4,1.3,0.6c0.5,0.1,1.1,0.1,1.6,0.1c1.1,0,2.2-0.1,3.2-0.5
		c0.8-0.3,1.5-0.7,2.2-1.3c0.5-0.4,1-1,1.3-1.6c0.2-0.5,0.4-1.1,0.4-1.7V48.7z"/>
	<path class="st0" d="M77.5,37.7v3.6h0.1c1.6-2.8,4-4.1,7.4-4.1c1.3-0.1,2.5,0.1,3.7,0.6c1,0.4,1.8,1,2.4,1.7s1,1.6,1.3,2.6
		c0.2,1.1,0.4,2.2,0.4,3.4v15H89V45c0.1-1.3-0.4-2.5-1.3-3.4c-0.9-0.8-2.2-1.3-3.4-1.3c-1,0-2,0.1-3,0.5c-0.8,0.3-1.5,0.8-2.1,1.5
		c-0.6,0.7-1,1.4-1.3,2.2c-0.3,0.9-0.4,1.9-0.4,2.8v13h-3.7V37.7H77.5z"/>
	<path class="st0" d="M102,29v18.7l10.4-10h5l-9.1,8.3l9.7,14.5h-4.7l-7.8-11.9l-3.5,3.3v8.6h-3.7V29H102z"/>
	<path class="st0" d="M132.1,60.5v-20h-7.8v-4.7c1,0,2.1-0.1,3.1-0.2c1-0.1,1.9-0.5,2.8-1c0.8-0.4,1.5-1.1,2.1-1.9
		c0.6-0.9,1-1.9,1.1-2.9h4.9v30.9H132.1z"/>
</g>
</svg>
